<svg xmlns="http://www.w3.org/2000/svg" xmlns:xlink="http://www.w3.org/1999/xlink" width="533.724" height="154.879" viewBox="0 0 141.215 40.978" version="1.1" id="svg2343"><defs id="defs2337"><linearGradient xlink:href="#a" id="d" gradientUnits="userSpaceOnUse" x1="333.483" y1="702.6" x2="477.002" y2="563.73"/><linearGradient id="a" gradientUnits="userSpaceOnUse" x1="-4229.666" y1="-4143.64" x2="-3987.589" y2="-3860.573" gradientTransform="rotate(-65.001 1574.507 -5825.792)"><stop offset="0" id="stop3286-8" stop-color="#f69923"/><stop offset=".11" id="stop3288-2" stop-color="#f79a23"/><stop offset=".945" id="stop3290-2" stop-color="#e97826"/></linearGradient><linearGradient xlink:href="#b" id="e" gradientUnits="userSpaceOnUse" x1="333.483" y1="702.6" x2="477.002" y2="563.73"/><linearGradient gradientTransform="rotate(-65.001 1574.507 -5825.792)" y2="-3860.573" x2="-3987.589" y1="-4143.64" x1="-4229.666" gradientUnits="userSpaceOnUse" id="b"><stop id="stop3951" offset="0" stop-color="#f69923"/><stop id="stop3953" offset=".08" stop-color="#f79a23"/><stop id="stop3955" offset=".419" stop-color="#e97826"/></linearGradient><linearGradient xlink:href="#c" id="f" gradientUnits="userSpaceOnUse" x1="633.551" y1="814.599" x2="566.471" y2="909.117"/><linearGradient gradientTransform="rotate(-65.001 1574.507 -5825.792)" y2="-3860.573" x2="-3987.589" y1="-4143.64" x1="-4229.666" gradientUnits="userSpaceOnUse" id="c"><stop id="stop4558" offset="0" stop-color="#f6e423" stop-opacity="1"/><stop id="stop4560" offset=".412" stop-color="#f79a23"/><stop id="stop4562" offset=".733" stop-color="#e97826"/></linearGradient></defs><g id="layer1" transform="translate(210.458 -18.464)"><g id="g4839" transform="translate(-253.464 -173.701) scale(.3152)"><g id="g4763" transform="translate(73.919 19.51)"><g transform="translate(-72.023 20.16)" id="g4765"><g id="g4767" font-size="27.92" font-family="Sans" letter-spacing="0" word-spacing="0" fill="#6c5d53"><path d="M335.44 637.18c9.46 0 13.75 5.28 14.63 11.33h2.42l-1.1-13.97h-2.53c0 1.32-.55 2.2-1.32 2.2-2.09 0-6.6-3.3-12.21-3.3-17.27 0-33.33 12.87-33.33 34.21 0 16.72 11.22 32.34 31.68 32.34 13.53 0 19.91-7.7 22.66-14.3l-2.64-1.32c-1.98 5.39-10.12 11.88-17.82 11.88-11.44 0-22.44-10.56-22.44-31.02 0-16.72 9.46-28.05 22-28.05" style="-inkscape-font-specification:'Judson Medium'" id="path4769"/><path d="M371.575 658.63c1.1-4.29 5.5-5.28 11.22-5.28 8.58 0 11 6.05 11 17.82-11.11 3.19-31.02 5.17-31.02 15.4 0 10.56 7.26 13.42 16.5 13.42 7.7 0 12.98-2.42 16.17-4.73 1.76 3.52 4.62 4.51 7.81 4.51 7.59 0 10.12-1.87 10.12-5.94h-1.98c0 1.54-1.87 2.64-3.74 2.64s-3.96-1.76-3.96-6.82v-21.78c0-10.23-5.39-18.48-19.8-18.48-11.55 0-18.15 4.4-18.15 12.1 0 3.3 1.87 5.5 4.73 5.5 2.31 0 4.95-1.1 4.95-3.85 0-3.41-2.09-4.51-3.85-4.51m22.88 33.88c-3.41 2.09-8.91 3.74-13.31 3.74-4.95 0-8.14-1.98-8.14-9.46 0-8.91 13.09-10.78 20.79-13.2v12.98c0 2.31.22 4.29.66 5.94" style="-inkscape-font-specification:'Judson Medium'" id="path4771"/><path d="M415.731 698.89h23.76v-2.31c-4.62 0-6.27-.66-6.93-2.2v-36.41c2.53-2.31 6.49-4.84 11.55-4.84 6.6 0 9.24 3.19 9.24 12.87v28.38c-.66 1.54-2.31 2.2-6.93 2.2v2.31h23.76v-2.31c-4.62 0-6.27-.66-6.93-2.2v-32.45c0-1.21-.11-2.42-.44-3.52 2.53-2.42 6.6-5.28 11.99-5.28 6.6 0 9.24 3.19 9.24 12.87v28.38c-.66 1.54-2.31 2.2-6.93 2.2v2.31h23.76v-2.31c-4.62 0-6.27-.66-6.93-2.2v-32.45c0-7.92-5.5-12.54-18.48-12.54-6.16 0-11 3.52-13.75 6.38-2.42-4.07-7.81-6.38-16.94-6.38-5.17 0-9.35 2.53-12.21 4.95v-4.95c-4.95 0-12.54 4.73-16.83 4.73v2.53c1.65 0 4.18.33 6.93.55v37.18c-.66 1.54-2.31 2.2-6.93 2.2v2.31" style="-inkscape-font-specification:'Judson Medium'" id="path4773"/><path d="M517.08 672.38h35.31c0-12.1-6.6-22.99-23.1-22.99-14.74 0-22.66 10.56-22.66 22.88 0 22.22 13.64 27.72 23.76 27.72 11.44 0 17.6-3.3 21.78-10.12l-2.64-1.32c-4.4 5.5-9.02 7.26-15.4 7.26-8.69 0-16.83-11.11-17.05-23.43m.11-3.41c.99-10.12 6.82-16.28 11.66-16.28 9.79 0 11.99 7.15 12.76 16.28h-24.42" style="-inkscape-font-specification:'Judson Medium'" id="path4775"/><path d="M558.791 698.89h23.76v-2.31c-4.62 0-6.27-.66-6.93-2.2v-64.79c-4.95 0-12.54 4.73-16.83 4.73v2.53c1.65 0 4.18.33 6.93.55v56.98c-.66 1.54-2.31 2.2-6.93 2.2v2.31" style="-inkscape-font-specification:'Judson Medium'" id="path4777"/></g><g transform="translate(203.401 388.265) scale(.3555)" id="g4779"><path d="M280.233 639.497l27.234-65.097h5.227l27.233 65.097h-6.877l-8.44-20.357h-29.247l-8.34 20.357zm29.897-57.581L296.739 614.1h26.408z" id="path4781" fill="#d22128"/><path d="M346.958 639.497V574.4h26.959c11.19 0 19.256 10.366 19.256 20.445 0 10.64-7.516 20.631-18.706 20.631h-21.182v24.02zm6.327-29.71h20.808c7.702 0 12.654-7.064 12.654-14.942 0-8.165-6.052-14.767-13.204-14.767h-20.258z" id="path4783" fill="#d22128"/><path d="M389.608 639.497L416.84 574.4h5.227l27.233 65.097h-6.877l-8.44-20.357h-29.247l-8.34 20.357zm29.885-57.581L406.102 614.1h26.408z" id="path4785" fill="#d22128"/><path d="M480.1 574.037c11.553 0 19.982 5.865 24.02 14.217l-5.138 3.114c-4.127-8.616-12.192-11.554-19.256-11.554-15.592 0-24.109 13.941-24.109 27.046 0 14.393 10.541 27.41 24.384 27.41 7.339 0 15.955-3.664 20.08-12.104l5.316 2.751c-4.215 9.716-15.768 15.13-25.76 15.13-17.88 0-30.435-17.056-30.435-33.56 0-15.68 11.268-32.45 30.898-32.45z" id="path4787" fill="#d22128"/><path d="M565.695 574.4v65.097h-6.415V609.06h-38.6v30.436h-6.327V574.4h6.327v28.972h38.6V574.4z" id="path4789" fill="#d22128"/><path d="M624.134 633.808v5.689h-43.738V574.4h42.913v5.689h-36.586v23.47h31.91v5.403h-31.91v24.846z" id="path4791" fill="#d22128"/><path d="M640.177 573.74c.99.99 1.486 2.19 1.486 3.587 0 1.398-.495 2.597-1.486 3.598-.99 1.002-2.2 1.508-3.609 1.508-1.42 0-2.618-.495-3.598-1.486-.98-.99-1.474-2.19-1.474-3.587 0-1.397.495-2.597 1.485-3.598.99-1.001 2.19-1.507 3.598-1.507 1.409 0 2.608.495 3.598 1.485zm-.429 6.767c.87-.88 1.299-1.936 1.299-3.169 0-1.232-.43-2.278-1.288-3.147-.858-.87-1.914-1.31-3.158-1.31-1.243 0-2.3.44-3.169 1.31-.858.88-1.298 1.937-1.298 3.17 0 1.232.43 2.288 1.276 3.157.859.87 1.904 1.31 3.147 1.31 1.244 0 2.322-.44 3.191-1.32zm-.715-4.148c0 .913-.396 1.485-1.2 1.716l1.464 1.981h-1.177l-1.32-1.838h-1.211v1.838h-.957v-5.502h2.068c.837 0 1.43.143 1.794.43.363.286.54.748.54 1.375zm-1.221.77c.187-.154.286-.418.286-.781 0-.363-.1-.616-.297-.748-.198-.143-.54-.21-1.046-.21h-1.166v1.981h1.144c.529 0 .88-.077 1.079-.242z" id="path4793" fill="#6d6e71"/></g></g></g><g id="g4801" transform="translate(-386.874 -169.403)"><g transform="translate(216.264 -21.046)" id="g4803"><circle r="63.02" cy="629.226" cx="412.333" id="path4805" transform="translate(-36.805 240.872) scale(.99206)" fill="url(#d)" stroke="url(#e)" stroke-width="5" stroke-linejoin="round"/></g><path id="path4807" d="M573.313 817.406c-.89 0-1.79.005-2.688.031-1.044.031-2.446.363-4.063.907 27.31 20.737 37.127 58.146 20.25 90.656.574.015 1.142.062 1.72.062 30.843 0 56.62-21.493 63.28-50.312-19.572-22.943-46.118-41.294-78.5-41.344z" opacity=".75" fill="url(#f)"/><path id="path4809" d="M566.563 818.344c-9.069 3.052-26.368 13.801-43 28.156 1.263 34.195 28.96 61.607 63.25 62.5 16.876-32.51 7.059-69.92-20.25-90.656z" opacity=".75" fill="#28170b"/><g id="g4811"><path id="path4813" d="M590.311 806.309c-.472-.032-.931.028-1.375.25-5.6 2.8 0 14 0 14-16.806 14.008-13.236 37.937-32.844 37.937-10.688 0-21.322-12.293-32.53-19.812-.145 1.773-.25 3.564-.25 5.375 0 24.514 13.51 45.863 33.468 57.062 5.583-.703 11.157-2.114 15.344-4.906 21.992-14.662 27.452-42.557 36.437-56.031 5.596-8.407 31.824-7.677 33.594-11.219 2.804-5.602-5.602-14-8.406-14h-22.407c-1.565 0-4.025-2.781-5.593-2.781h-8.407s-3.724-5.65-7.03-5.875z" fill="#fff"/></g></g></g></g></svg>