<svg xmlns="http://www.w3.org/2000/svg" xmlns:xlink="http://www.w3.org/1999/xlink" width="130.207" height="130.006" viewBox="0 0 34.45 34.397"><defs><linearGradient xlink:href="#a" id="d" gradientUnits="userSpaceOnUse" x1="333.483" y1="702.6" x2="477.002" y2="563.73"/><linearGradient id="a" gradientUnits="userSpaceOnUse" x1="-4229.666" y1="-4143.64" x2="-3987.589" y2="-3860.573" gradientTransform="rotate(-65.001 1574.507 -5825.792)"><stop offset="0" stop-color="#f69923"/><stop offset=".11" stop-color="#f79a23"/><stop offset=".945" stop-color="#e97826"/></linearGradient><linearGradient xlink:href="#b" id="e" gradientUnits="userSpaceOnUse" x1="333.483" y1="702.6" x2="477.002" y2="563.73"/><linearGradient gradientTransform="rotate(-65.001 1574.507 -5825.792)" y2="-3860.573" x2="-3987.589" y1="-4143.64" x1="-4229.666" gradientUnits="userSpaceOnUse" id="b"><stop offset="0" stop-color="#f69923"/><stop offset=".08" stop-color="#f79a23"/><stop offset=".419" stop-color="#e97826"/></linearGradient><linearGradient xlink:href="#c" id="f" gradientUnits="userSpaceOnUse" x1="633.551" y1="814.599" x2="566.471" y2="909.117"/><linearGradient gradientTransform="rotate(-65.001 1574.507 -5825.792)" y2="-3860.573" x2="-3987.589" y1="-4143.64" x1="-4229.666" gradientUnits="userSpaceOnUse" id="c"><stop offset="0" stop-color="#f6e423"/><stop offset=".412" stop-color="#f79a23"/><stop offset=".733" stop-color="#e97826"/></linearGradient></defs><circle r="63.02" cy="629.226" cx="412.333" transform="translate(-90.977 -147.963) scale(.26248)" fill="url(#d)" stroke="url(#e)" stroke-width="5" stroke-linejoin="round"/><path d="M573.313 817.406c-.89 0-1.79.005-2.688.031-1.044.031-2.446.363-4.063.907 27.31 20.737 37.127 58.146 20.25 90.656.574.015 1.142.062 1.72.062 30.843 0 56.62-21.493 63.28-50.312-19.572-22.943-46.118-41.294-78.5-41.344z" opacity=".75" fill="url(#f)" transform="translate(-138.46 -206.125) scale(.26458)"/><path d="M11.444 10.395c-2.4.807-6.977 3.652-11.377 7.45C.4 26.891 7.729 34.144 16.8 34.38c4.466-8.602 1.868-18.5-5.357-23.986z" opacity=".75" fill="#28170b"/><path d="M17.727 7.21a.689.689 0 0 0-.364.067c-1.481.74 0 3.704 0 3.704-4.446 3.706-3.502 10.037-8.69 10.037-2.828 0-5.641-3.252-8.607-5.242C.028 16.246 0 16.72 0 17.2c0 6.486 3.575 12.134 8.855 15.097 1.477-.186 2.952-.559 4.06-1.298 5.819-3.88 7.263-11.26 9.64-14.825 1.481-2.224 8.42-2.03 8.89-2.968.741-1.482-1.483-3.704-2.225-3.704h-5.928c-.415 0-1.065-.736-1.48-.736h-2.225s-.985-1.495-1.86-1.554z" fill="#fff"/></svg>